<?xml version="1.0" encoding="UTF-8"?>
<svg width="128" height="128" viewBox="0 0 128 128" xmlns="http://www.w3.org/2000/svg" role="img" aria-label="Sirsi">
  <defs>
    <linearGradient id="g" x1="0%" y1="0%" x2="100%" y2="100%">
      <stop offset="0%" stop-color="#10b981"/>
      <stop offset="100%" stop-color="#047857"/>
    </linearGradient>
  </defs>
  <rect width="128" height="128" rx="24" fill="url(#g)"/>
  <g fill="white">
    <path d="M34 48c0-9.941 10.297-18 23-18 8.607 0 16.17 3.4 20.3 8.67 1.5 1.9 1.21 4.64-.68 6.14-1.9 1.5-4.64 1.21-6.14-.68C67.6 40.2 61.7 37 57 37c-8.284 0-15 4.925-15 11 0 5.27 4.23 8.87 12.92 10.77l7.52 1.64C73.72 62.59 82 69.08 82 79c0 11.05-11.08 20-25 20-10.22 0-19.2-4.33-23.55-11.21-1.33-2.1-.7-4.86 1.4-6.19 2.1-1.33 4.86-.7 6.19 1.4C44.4 87.92 50.46 91 57 91c9.39 0 17-5.16 17-12 0-5.41-4.35-9.05-13.66-11.09l-7.46-1.63C41.07 63.7 34 56.98 34 48z"/>
    <circle cx="94" cy="34" r="10" fill-opacity="0.15"/>
    <circle cx="100" cy="94" r="6" fill-opacity="0.15"/>
  </g>
</svg>

